<svg width="325" height="325" viewBox="0 0 325 325" fill="none" xmlns="http://www.w3.org/2000/svg">
<path d="M283.789 40.8396C289.71 46.7623 293.036 54.7942 293.036 63.169C293.036 71.5437 289.71 79.5756 283.789 85.4984L239.13 130.189L194.439 85.4984L239.114 40.8396C245.037 34.9186 253.069 31.5924 261.444 31.5924C269.818 31.5924 277.866 34.9186 283.789 40.8396ZM306.102 18.4943C294.257 6.65242 278.193 0 261.444 0C244.694 0 228.63 6.65242 216.785 18.4943L172.11 63.169L166.52 57.5945C165.063 56.0862 163.321 54.8832 161.394 54.0556C159.467 53.2279 157.395 52.7923 155.298 52.7741C153.201 52.7559 151.122 53.1554 149.181 53.9495C147.241 54.7435 145.477 55.9161 143.995 57.3988C142.512 58.8815 141.339 60.6447 140.545 62.5854C139.751 64.5261 139.352 66.6056 139.37 68.7024C139.388 70.7992 139.824 72.8714 140.651 74.798C141.479 76.7247 142.682 78.4672 144.19 79.9239L149.781 85.4984L51.6354 183.644C42.8166 192.462 36.8054 203.693 34.3593 215.922L28.8322 243.62C27.6092 249.735 24.6036 255.35 20.1942 259.759L4.62358 275.33C1.6631 278.291 0 282.307 0 286.495C0 290.682 1.6631 294.698 4.62358 297.659L26.9688 320.005C29.9302 322.965 33.9461 324.628 38.1335 324.628C42.3209 324.628 46.3368 322.965 49.2982 320.005L64.8688 304.434C69.2778 300.025 74.8934 297.019 81.0079 295.796L108.706 290.253C120.935 287.807 132.167 281.796 140.985 272.977L239.13 174.832L244.704 180.422C247.665 183.385 251.682 185.051 255.871 185.052C260.06 185.054 264.078 183.391 267.042 180.43C270.005 177.469 271.67 173.452 271.672 169.263C271.673 165.074 270.011 161.056 267.05 158.093L261.459 152.502L306.118 107.828C311.984 101.962 316.637 94.9986 319.812 87.3347C322.986 79.6707 324.62 71.4565 324.62 63.1611C324.62 54.8656 322.986 46.6514 319.812 38.9875C316.637 31.3235 311.968 24.36 306.102 18.4943ZM172.126 107.844L216.8 152.502L118.655 250.648C114.246 255.057 108.631 258.063 102.516 259.286L74.8175 264.813C62.5812 267.26 51.3439 273.277 42.5236 282.105C51.3424 273.287 57.3536 262.055 59.7997 249.826L65.3268 222.112C66.5498 215.998 69.5554 210.382 73.9648 205.973L172.126 107.844Z" fill="black"/>
</svg>
