<svg width="22" height="22" viewBox="0 0 22 22" fill="none" xmlns="http://www.w3.org/2000/svg">
<path d="M11.7803 0.234229C11.9304 0.0842523 12.1338 0 12.3459 0C12.5581 0 12.7615 0.0842523 12.9115 0.234229L21.2363 8.55743L21.3403 8.68383C21.4412 8.83773 21.4859 9.02169 21.467 9.20472C21.448 9.38775 21.3666 9.55865 21.2363 9.68863L10.1595 20.767C9.93666 20.9901 9.67201 21.167 9.38073 21.2877C9.08945 21.4084 8.77724 21.4705 8.46194 21.4705C8.14663 21.4705 7.83442 21.4084 7.54314 21.2877C7.25186 21.167 6.98722 20.9901 6.76434 20.767L0.701937 14.7046C0.282235 14.2844 0.0332401 13.7235 0.0030957 13.1304C-0.0270487 12.5373 0.163798 11.954 0.538737 11.4934L0.701937 11.311L11.7803 0.234229ZM1.83314 12.4422C1.68316 12.5923 1.59891 12.7957 1.59891 13.0078C1.59891 13.22 1.68316 13.4234 1.83314 13.5734L7.89714 19.6374C8.04716 19.7874 8.25061 19.8717 8.46274 19.8717C8.67487 19.8717 8.87831 19.7874 9.02834 19.6374L11.0347 17.6262L3.84114 10.4342L1.83314 12.4422ZM4.97234 9.30303L12.1659 16.4966L19.5403 9.12383L12.3467 1.93023L4.97234 9.30303Z" fill="black"/>
</svg>
