<svg width="22" height="22" viewBox="0 0 22 22" fill="none" xmlns="http://www.w3.org/2000/svg">
<path d="M17.7133 17.652L19.4803 15.885L21.2483 17.652C21.598 18.0016 21.8362 18.4471 21.9327 18.932C22.0292 19.417 21.9798 19.9197 21.7906 20.3766C21.6014 20.8334 21.2809 21.2239 20.8698 21.4987C20.4587 21.7734 19.9753 21.92 19.4808 21.92C18.9863 21.92 18.5029 21.7734 18.0918 21.4987C17.6806 21.2239 17.3602 20.8334 17.171 20.3766C16.9818 19.9197 16.9324 19.417 17.0289 18.932C17.1254 18.4471 17.3636 18.0016 17.7133 17.652ZM7.36329 0L18.6773 11.313C18.7703 11.4059 18.844 11.5162 18.8943 11.6376C18.9447 11.759 18.9706 11.8891 18.9706 12.0205C18.9706 12.1519 18.9447 12.282 18.8943 12.4034C18.844 12.5248 18.7703 12.6351 18.6773 12.728L10.1923 21.213C10.0048 21.4005 9.75045 21.5058 9.48529 21.5058C9.22012 21.5058 8.96581 21.4005 8.77829 21.213L0.293287 12.728C0.20031 12.6351 0.126551 12.5248 0.0762269 12.4034C0.0259027 12.282 0 12.1519 0 12.0205C0 11.8891 0.0259027 11.759 0.0762269 11.6376C0.126551 11.5162 0.20031 11.4059 0.293287 11.313L8.07129 3.535L5.94929 1.414L7.36329 0ZM9.48529 4.95L2.41429 12.02H16.5553L9.48529 4.95Z" fill="black"/>
</svg>
