<svg width="20" height="20" viewBox="0 0 20 20" fill="none" xmlns="http://www.w3.org/2000/svg">
<path d="M0.766446 17.7845L1.37345 13.6225C1.41045 13.3505 1.53445 13.0975 1.72845 12.9025L13.4894 1.12546C13.6417 0.971021 13.8312 0.858488 14.0397 0.798749C14.2482 0.739011 14.4685 0.73409 14.6794 0.784463C15.7591 1.08292 16.7378 1.66833 17.5114 2.47846C18.3194 3.25741 18.9007 4.24105 19.1934 5.32446C19.2438 5.53539 19.2389 5.75575 19.1792 5.96423C19.1194 6.1727 19.0069 6.36222 18.8524 6.51446L7.07845 18.2765C6.88317 18.47 6.62996 18.5943 6.35745 18.6305L2.19645 19.2375C1.99989 19.2661 1.79934 19.2481 1.61107 19.1848C1.42279 19.1214 1.25209 19.0146 1.11281 18.873C0.973527 18.7314 0.869581 18.5589 0.809403 18.3696C0.749224 18.1803 0.734508 17.9795 0.766446 17.7835M11.2644 3.36546L16.6274 8.72846" stroke="black" stroke-width="1.5" stroke-linecap="round" stroke-linejoin="round"/>
</svg>
